<?xml version="1.0" encoding="iso-8859-1"?>
<!-- Generator: Adobe Illustrator 19.0.0, SVG Export Plug-In . SVG Version: 6.00 Build 0)  -->
<svg version="1.1" id="Capa_1" xmlns="http://www.w3.org/2000/svg" xmlns:xlink="http://www.w3.org/1999/xlink" x="0px" y="0px"
	 viewBox="0 0 480 480" style="enable-background:new 0 0 480 480;" xml:space="preserve">
<path style="fill:#6F3114;" d="M240,88.01c-83.947,0-152,68.053-152,152s68.053,152,152,152s152-68.053,152-152
	C391.907,156.101,323.909,88.102,240,88.01z M240,360.01c-66.274,0-120-53.726-120-120s53.726-120,120-120s120,53.726,120,120
	C359.925,306.253,306.243,359.935,240,360.01z"/>
<path style="fill:#572610;" d="M240,184.01c-30.928,0-56,25.072-56,56s25.072,56,56,56s56-25.072,56-56
	C295.965,209.096,270.913,184.045,240,184.01z M240,264.01c-13.255,0-24-10.745-24-24c0-13.255,10.745-24,24-24
	c13.255,0,24,10.745,24,24C264,253.264,253.255,264.01,240,264.01z"/>
<g>
	<path style="fill:#8A4325;" d="M224,56.01l8,32h16l8-32v-32c0-8.837-7.163-16-16-16c-8.837,0-16,7.163-16,16V56.01z"/>
	<path style="fill:#8A4325;" d="M224,424.01l8-32h16l8,32v32c0,8.837-7.163,16-16,16c-8.837,0-16-7.163-16-16V424.01z"/>
	<path style="fill:#8A4325;" d="M98.576,121.218l28.288,16.968l11.312-11.312l-16.968-28.288L98.576,75.962
		c-6.248-6.246-16.376-6.246-22.624,0c-6.246,6.248-6.246,16.376,0,22.624L98.576,121.218z"/>
	<path style="fill:#8A4325;" d="M358.792,381.434l-16.968-28.288l11.312-11.312l28.288,16.968l22.624,22.632
		c6.246,6.248,6.246,16.376,0,22.624c-6.248,6.246-16.376,6.246-22.624,0L358.792,381.434z"/>
	<path style="fill:#8A4325;" d="M56,256.01l32-8v-16l-32-8H24c-8.837,0-16,7.163-16,16c0,8.837,7.163,16,16,16H56z"/>
	<path style="fill:#8A4325;" d="M424,256.01l-32-8v-16l32-8h32c8.837,0,16,7.163,16,16c0,8.837-7.163,16-16,16H424z"/>
	<path style="fill:#8A4325;" d="M121.208,381.434l16.968-28.288l-11.312-11.312l-28.288,16.968l-22.624,22.632
		c-6.246,6.248-6.246,16.376,0,22.624c6.248,6.246,16.376,6.246,22.624,0L121.208,381.434z"/>
	<path style="fill:#8A4325;" d="M381.424,121.218l-28.288,16.968l-11.312-11.312l16.968-28.288l22.632-22.624
		c6.248-6.246,16.376-6.246,22.624,0c6.246,6.248,6.246,16.376,0,22.624L381.424,121.218z"/>
	<path style="fill:#8A4325;" d="M232,120.01h16v64h-16V120.01z"/>
	<path style="fill:#8A4325;" d="M232,296.01h16v64h-16V296.01z"/>
	<path style="fill:#8A4325;" d="M149.517,160.799l11.314-11.314l45.255,45.255l-11.314,11.314L149.517,160.799z"/>
	<path style="fill:#8A4325;" d="M273.938,285.263l11.314-11.314l45.255,45.255l-11.314,11.314L273.938,285.263z"/>
	<path style="fill:#8A4325;" d="M120,232.01h64v16h-64V232.01z"/>
	<path style="fill:#8A4325;" d="M296,232.01h64v16h-64V232.01z"/>
	<path style="fill:#8A4325;" d="M149.516,319.203l45.255-45.255l11.314,11.314l-45.255,45.255L149.516,319.203z"/>
	<path style="fill:#8A4325;" d="M273.94,194.742l45.255-45.255l11.314,11.314l-45.255,45.255L273.94,194.742z"/>
</g>
<path d="M240,112.01c-70.692,0-128,57.308-128,128s57.308,128,128,128s128-57.308,128-128
	C367.916,169.352,310.658,112.093,240,112.01z M240,288.01c-26.51,0-48-21.49-48-48s21.49-48,48-48s48,21.49,48,48
	C287.974,266.508,266.499,287.983,240,288.01z M279.2,189.514c-9.043-7.05-19.823-11.525-31.2-12.952v-48.144
	c24.103,1.7,46.999,11.193,65.232,27.048L279.2,189.514z M232,176.562c-11.377,1.427-22.157,5.902-31.2,12.952l-34.048-34.048
	c18.238-15.858,41.14-25.352,65.248-27.048V176.562z M189.504,200.81c-7.05,9.043-11.525,19.823-12.952,31.2h-48.144
	c1.7-24.103,11.193-46.999,27.048-65.232L189.504,200.81z M176.552,248.01c1.427,11.377,5.902,22.157,12.952,31.2l-34.048,34.048
	c-15.858-18.238-25.352-41.14-27.048-65.248H176.552z M200.8,290.506c9.043,7.05,19.823,11.525,31.2,12.952v48.144
	c-24.103-1.7-46.999-11.193-65.232-27.048L200.8,290.506z M248,303.458c11.377-1.427,22.157-5.902,31.2-12.952l34.048,34.048
	c-18.238,15.858-41.14,25.352-65.248,27.048L248,303.458z M290.496,279.21c7.05-9.043,11.525-19.823,12.952-31.2h48.144
	c-1.7,24.103-11.193,46.999-27.048,65.232L290.496,279.21z M303.448,232.01c-1.427-11.377-5.902-22.157-12.952-31.2l34.048-34.048
	c15.858,18.238,25.352,41.14,27.048,65.248H303.448z"/>
<path d="M240,208.01c-17.673,0-32,14.327-32,32s14.327,32,32,32s32-14.327,32-32S257.673,208.01,240,208.01z M240,256.01
	c-8.837,0-16-7.163-16-16c0-8.837,7.163-16,16-16c8.837,0,16,7.163,16,16C256,248.846,248.837,256.01,240,256.01z"/>
<path d="M24,264.01h32c0.655,0,1.308-0.081,1.944-0.24l23.136-5.784c3.377,29.858,15.14,58.15,33.928,81.6l-20.544,12.328
	c-0.562,0.335-1.08,0.738-1.544,1.2L70.296,375.77c-9.45,9.295-9.575,24.49-0.281,33.94s24.49,9.575,33.94,0.281
	c0.093-0.091,0.185-0.184,0.277-0.277l22.632-22.624c0.462-0.464,0.865-0.982,1.2-1.544l12.328-20.544
	c23.45,18.788,51.742,30.551,81.6,33.928l-5.784,23.136c-0.149,0.637-0.218,1.29-0.208,1.944v32
	c0.011,13.255,10.764,23.991,24.019,23.981c13.24-0.011,23.97-10.741,23.981-23.981v-32c0-0.655-0.081-1.308-0.24-1.944
	l-5.784-23.136c29.858-3.377,58.15-15.14,81.6-33.928l12.328,20.544c0.335,0.562,0.738,1.08,1.2,1.544l22.624,22.624
	c9.295,9.45,24.49,9.575,33.94,0.28c9.45-9.295,9.575-24.49,0.28-33.94c-0.091-0.093-0.183-0.185-0.276-0.276l-22.624-22.632
	c-0.464-0.462-0.982-0.865-1.544-1.2l-20.544-12.328c18.788-23.45,30.551-51.742,33.928-81.6l23.136,5.784
	c0.647,0.151,1.311,0.221,1.976,0.208h32c13.255,0,24-10.745,24-24c0-13.255-10.745-24-24-24h-32c-0.655,0-1.308,0.081-1.944,0.24
	l-23.136,5.784c-3.377-29.858-15.14-58.15-33.928-81.6l20.544-12.328c0.562-0.335,1.08-0.738,1.544-1.2l22.624-22.624
	c9.373-9.372,9.375-24.568,0.003-33.941c-0.001-0.001-0.002-0.002-0.003-0.003c-9.493-9.072-24.443-9.072-33.936,0l-22.632,22.624
	c-0.462,0.464-0.865,0.982-1.2,1.544l-12.328,20.544c-23.45-18.788-51.742-30.551-81.6-33.928l5.784-23.136
	c0.151-0.647,0.221-1.311,0.208-1.976v-32c0-13.255-10.745-24-24-24c-13.255,0-24,10.745-24,24v32c0,0.655,0.081,1.308,0.24,1.944
	l5.784,23.136c-29.858,3.377-58.15,15.14-81.6,33.928l-12.328-20.544c-0.335-0.562-0.738-1.08-1.2-1.544L104.24,70.306
	c-9.498-9.069-24.446-9.069-33.944,0c-9.369,9.372-9.369,24.564,0,33.936l22.624,22.632c0.464,0.462,0.982,0.865,1.544,1.2
	l20.544,12.328c-18.788,23.45-30.551,51.742-33.928,81.6l-23.136-5.752c-0.636-0.159-1.289-0.24-1.944-0.24H24
	c-13.255,0-24,10.745-24,24C0,253.264,10.745,264.01,24,264.01L24,264.01z M114.856,376.474L92.92,398.41
	c-3.162,3.029-8.15,3.029-11.312,0c-3.118-3.123-3.118-8.181,0-11.304l21.928-21.936l22.064-13.264l2.48,2.48L114.856,376.474z
	 M241.752,400.01L248,424.994v31.016c0,4.418-3.582,8-8,8s-8-3.582-8-8v-31.016l6.248-24.984H241.752z M398.4,387.09
	c3.123,3.124,3.123,8.188,0,11.312c-3.161,3.024-8.143,3.024-11.304,0l-21.936-21.928l-13.264-22.064l2.48-2.48l22.088,13.248
	L398.4,387.09z M400,238.29l24.984-6.28H456c4.418,0,8,3.582,8,8c0,4.418-3.582,8-8,8h-31.016L400,241.762V238.29z M240,384.01
	c-79.529,0-144-64.471-144-144s64.471-144,144-144s144,64.471,144,144C383.907,319.5,319.491,383.917,240,384.01z M365.144,103.546
	L387.08,81.61c3.162-3.029,8.15-3.029,11.312,0c3.118,3.123,3.118,8.181,0,11.304l-21.928,21.936L354.4,128.114l-2.48-2.48
	L365.144,103.546z M238.248,80.01L232,55.026V24.01c0-4.418,3.582-8,8-8c4.418,0,8,3.582,8,8v31.016l-6.248,24.984H238.248z
	 M81.6,92.93c-3.123-3.124-3.123-8.188,0-11.312c3.161-3.024,8.143-3.024,11.304,0l21.936,21.928l13.264,22.064l-2.48,2.48
	l-22.088-13.248L81.6,92.93z M24,232.01h31.016L80,238.258v3.504l-24.984,6.248H24c-4.418,0-8-3.582-8-8S19.582,232.01,24,232.01
	L24,232.01z"/>
<g>
</g>
<g>
</g>
<g>
</g>
<g>
</g>
<g>
</g>
<g>
</g>
<g>
</g>
<g>
</g>
<g>
</g>
<g>
</g>
<g>
</g>
<g>
</g>
<g>
</g>
<g>
</g>
<g>
</g>
</svg>
